<?xml version="1.0" encoding="utf-8"?>
<svg xmlns="http://www.w3.org/2000/svg" xmlns:xlink="http://www.w3.org/1999/xlink" version="1.1" viewBox="0 0 250 400">
	<title>The ascending astrological symbol.</title>
	<path d="m 37.84599,399.56832 c -17.540294,-2.3142 -32.5600968,-16.4936 -36.7126068,-34.65846 -4.64967,-20.33962 5.33027,-41.42081 24.0061308,-50.7095 l 6.841949,-3.40294 V 197.36937 c 0,-73.31286 0.286499,-115.844177 0.810084,-120.259787 1.16683,-9.84021 3.461042,-17.81767 7.518481,-26.14331 9.271193,-19.024011 23.754583,-33.07267 43.596673,-42.2881114 30.152249,-14.00389 67.124659,-10.872826 94.972449,8.0428784 17.53229,11.908878 30.92,31.523183 35.78823,52.433293 1.28568,5.52231 1.41921,14.63874 1.815,123.920207 l 0.42722,117.95937 5.08259,2.07687 c 10.84315,4.43077 19.00794,12.36835 23.92119,23.25557 9.24028,20.47543 2.39622,44.29357 -16.34387,56.87867 -7.35433,4.93887 -13.59815,6.75558 -23.21606,6.75498 -12.50506,-7.9e-4 -22.39397,-4.12299 -30.88954,-12.87634 -13.5081,-13.918 -16.72915,-34.79917 -8.10561,-52.54662 4.59682,-9.46035 14.43264,-18.56989 23.34645,-21.62254 l 3.91964,-1.34233 V 194.90352 c 0,-112.655357 -0.0524,-116.919917 -1.50901,-122.792097 -2.76325,-11.13977 -9.34246,-22.40969 -17.88507,-30.63638 -16.64185,-16.026403 -42.73226,-23.31361 -65.83707,-18.38868 -23.425409,4.993281 -40.886509,18.281 -50.049259,38.08703 -5.76552,12.46263 -5.46828,5.17549 -5.46828,134.059247 v 115.57785 l 2.93227,0.97954 c 10.20549,3.4092 20.9559,12.65576 25.80815,22.19791 6.37379,12.53433 6.46066,28.64012 0.22318,41.38026 -2.85091,5.82305 -9.97995,13.92442 -15.41432,17.51667 -8.10279,5.35615 -19.72869,7.98306 -29.578991,6.68345 z m 181.23528,-18.28896 c 6.10297,-2.94464 11.23867,-7.94541 13.89104,-13.52609 2.72279,-5.72888 3.07146,-15.19668 0.79037,-21.46249 -7.35625,-20.20661 -35.03943,-24.86353 -49.20006,-8.27653 -5.96304,6.98477 -8.09885,17.91715 -5.2319,26.78007 2.61486,8.08359 10.19944,15.31862 19.20335,18.31829 5.77333,1.9234 14.34658,1.15848 20.5472,-1.83325 z M 54.170921,380.20902 c 5.36567,-2.07364 9.47328,-5.21174 12.63524,-9.65297 3.7377,-5.24991 5.17397,-9.82953 5.2031,-16.59024 0.0459,-10.66104 -6.12394,-20.21478 -16.17871,-25.05189 -4.15719,-1.99992 -5.58424,-2.25703 -12.527443,-2.25703 -7.275197,0 -8.208612,0.18923 -13.04648,2.64487 -12.928227,6.56224 -18.708486,21.04366 -13.799383,34.57195 1.905416,5.25086 7.090495,11.45426 12.108149,14.48613 7.040884,4.25439 17.438857,5.00531 25.605527,1.84918 z"/>
</svg>
