<?xml version="1.0" encoding="utf-8"?>
<svg xmlns="http://www.w3.org/2000/svg" xmlns:xlink="http://www.w3.org/1999/xlink" version="1.1" viewBox="0 0 33.928829 64.23703">
	<title>The descending astrological symbol.</title>
	<path d="m 28.366333,0.18572665 c 1.4672,0.50735 2.62973,1.71313995 3.67159,3.80823995 0.81026,1.62936 1.36599,3.45393 1.70547,5.59945 0.22097,1.3964904 0.25279,6.1539304 0.0503,7.5203204 -0.3924,2.64799 -1.095,4.85194 -2.105,6.60312 l -0.43794,0.75931 0.21846,0.58189 c 1.10171,2.93445 1.72084,5.35326 2.06162,8.05431 0.97576,7.7338 -0.12809,15.28917 -3.0869,21.12855 -2.71631,5.3608 -6.17341,8.61477 -10.35506,9.74664 -0.85408,0.23118 -1.06594,0.24921 -2.93239,0.24947 -1.87881,2.9e-4 -2.07196,-0.0164 -2.9219,-0.25183 -3.57479,-0.99026 -6.3524701,-3.23691 -8.9489701,-7.23812 -2.52069,-3.88437 -4.01792,-8.38748 -4.67302997,-14.0547 -0.16597,-1.43573 -0.16478,-6.92356 0.002,-8.43041 0.3058,-2.76575 0.88937997,-5.45358 1.69328997,-7.79881 0.24214,-0.70642 0.48167,-1.36177 0.53228,-1.45633 0.0713,-0.13316 0.004,-0.308 -0.29947,-0.77531 -1.12751,-1.73773 -1.98202997,-4.26735 -2.40442997,-7.11778 -0.20153,-1.35997 -0.17352,-6.03033 0.0445,-7.4245204 0.70159,-4.48582 2.55320997,-8.08212 4.72590997,-9.17889995 3.79299,-1.91470005 7.4376001,2.43043995 8.3820901,9.99321035 0.15298,1.22494 0.15207,4.88558 -0.002,6.13121 -0.67672,5.48818 -2.90124,9.55493 -5.6282501,10.28924 -0.38402,0.1034 -0.40433,0.13033 -0.84837,1.12513 -1.60452,3.59466 -2.32112,7.803 -2.0624,12.11165 0.22629,3.76864 0.88956,6.46534 2.29562,9.33343 2.81278,5.73754 6.9178901,8.43387 11.6675801,7.66354 2.06488,-0.33489 3.76228,-1.29207 5.52286,-3.11438 2.77701,-2.8744 4.63617,-7.11509 5.24937,-11.97367 0.19279,-1.52757 0.1636,-5.87612 -0.0492,-7.32871 -0.37144,-2.53546 -0.99857,-4.74464 -1.88058,-6.62473 l -0.50119,-1.06831 -0.44543,-0.0655 c -2.7559,-0.40505 -5.20102,-4.51822 -5.89506,-9.91662 -0.70807,-5.50757 0.28837,-11.1659404 2.55427,-14.5045804 1.41232,-2.08094995 3.34651,-2.98187995 5.10001,-2.37552995 z m -1.92029,5.81027995 c -1.36812,0.57164 -2.53863,2.79981 -2.91256,5.5443004 -0.12933,0.94925 -0.1314,2.85395 -0.004,3.86833 0.30597,2.4402 1.3646,4.64159 2.58212,5.36945 0.94416,0.56444 2.04905,0.38603 2.87404,-0.46408 0.78371,-0.80756 1.4739,-2.28004 1.83682,-3.91877 0.18969,-0.8565 0.22296,-1.27626 0.224,-2.82611 0.001,-1.94721 -0.0953,-2.72694 -0.49857,-4.0236004 -0.50174,-1.61333 -1.47151,-3.05165 -2.3511,-3.48704 -0.48163,-0.23841 -1.26277,-0.26628 -1.75054,-0.0625 z m -20.4624901,0.008 c -0.60615,0.20654 -1.09362,0.64292 -1.62152,1.45158 -2.25832,3.4594204 -1.92792,10.2387104 0.62787,12.8828604 0.50918,0.52678 1.01344,0.7467 1.7181,0.74931 0.75201,0.003 1.26666,-0.25385 1.87274,-0.93386 0.82645,-0.92726 1.4928501,-2.53294 1.7761501,-4.27963 0.16168,-0.99684 0.18523,-3.50325 0.0424,-4.50812 -0.311,-2.1874504 -1.2781801,-4.2763504 -2.3115601,-4.9924904 -0.73235,-0.50752 -1.3705,-0.61963 -2.10415,-0.36965 z"/>
</svg>
