<?xml version="1.0" encoding="utf-8"?>
<svg xmlns="http://www.w3.org/2000/svg" xmlns:xlink="http://www.w3.org/1999/xlink" version="1.1" viewBox="0 0 250 400">
	<title>The descending astrological symbol.</title>
	<path d="M 212.15401,0.43168015 C 229.6943,2.7458801 244.71411,16.92528 248.86662,35.09014 c 4.64967,20.33962 -5.33027,41.42081 -24.00613,50.7095 l -6.84195,3.40294 v 113.42805 c 0,73.31286 -0.2865,115.84418 -0.81009,120.25979 -1.16683,9.84021 -3.46104,17.81767 -7.51848,26.14331 -9.27119,19.02401 -23.75458,33.07267 -43.59667,42.28811 -30.15225,14.00389 -67.124657,10.87283 -94.972447,-8.04288 -17.53229,-11.90888 -30.920002,-31.52318 -35.788232,-52.43329 -1.28568,-5.52231 -1.41921,-14.63874 -1.815,-123.92021 L 33.090401,88.96609 28.007811,86.88922 C 17.164661,82.45845 8.9998709,74.52087 4.0866209,63.63365 -5.1536591,43.15822 1.6904009,19.34008 20.430491,6.7549801 27.784821,1.8161101 34.028641,-5.9985143e-4 43.646553,1.4856536e-7 56.151613,7.9014857e-4 66.040523,4.1229901 74.536093,12.87634 c 13.5081,13.918 16.72915,34.79917 8.10561,52.54662 -4.59682,9.46035 -14.43264,18.56989 -23.34645,21.62254 l -3.91964,1.34233 v 116.70865 c 0,112.65536 0.0524,116.91992 1.50901,122.7921 2.76325,11.13977 9.34246,22.40969 17.88507,30.63638 16.64185,16.0264 42.732257,23.31361 65.837067,18.38868 23.42541,-4.99328 40.88651,-18.281 50.04926,-38.08703 5.76552,-12.46263 5.46828,-5.17549 5.46828,-134.05925 V 89.18951 l -2.93227,-0.97954 c -10.20549,-3.4092 -20.9559,-12.65576 -25.80815,-22.19791 -6.37379,-12.53433 -6.46066,-28.64012 -0.22318,-41.38026 2.85091,-5.82305 9.97995,-13.92442 15.41432,-17.5166699 8.10279,-5.35615 19.72869,-7.98305995 29.57899,-6.68344995 z M 30.918731,18.72064 c -6.10297,2.94464 -11.23867,7.94541 -13.89104,13.52609 -2.72279,5.72888 -3.07146,15.19668 -0.79037,21.46249 7.35625,20.20661 35.039432,24.86353 49.200062,8.27653 5.96304,-6.98477 8.09885,-17.91715 5.2319,-26.78007 -2.61486,-8.08359 -10.19944,-15.31862 -19.20335,-18.31829 -5.77333,-1.9234 -14.346582,-1.15848 -20.547202,1.83325 z m 164.910349,1.07034 c -5.36567,2.07364 -9.47328,5.21174 -12.63524,9.65297 -3.7377,5.24991 -5.17397,9.82953 -5.2031,16.59024 -0.0459,10.66104 6.12394,20.21478 16.17871,25.05189 4.15719,1.99992 5.58424,2.25703 12.52744,2.25703 7.2752,0 8.20861,-0.18923 13.04648,-2.64487 12.92823,-6.56224 18.70849,-21.04366 13.79938,-34.57195 -1.90541,-5.25086 -7.09049,-11.45426 -12.10814,-14.48613 -7.04089,-4.25439 -17.43886,-5.00531 -25.60553,-1.84918 z"/>
</svg>
