<?xml version="1.0" encoding="utf-8"?>
<svg xmlns="http://www.w3.org/2000/svg" xmlns:xlink="http://www.w3.org/1999/xlink" version="1.1" viewBox="0 0 33.928829 64.23703">
	<title>The ascending astrological symbol</title>
	<path d="m 5.5625054,64.051194 c -1.46721,-0.50735 -2.62973,-1.71313 -3.6716,-3.80823 -0.81026,-1.62936 -1.36598002,-3.45393 -1.70547002,-5.59945 -0.22097,-1.39648 -0.25279,-6.15391 -0.0503,-7.5203 0.39241,-2.64798 1.09500002,-4.85194 2.10501002,-6.60311 l 0.43794,-0.7593 -0.21847,-0.5819 c -1.1017,-2.93444 -1.72084002,-5.35325 -2.06162002,-8.05429 -0.97576,-7.73379 0.12809,-15.28915 3.08691002,-21.1285204 2.71631,-5.36079 6.17341,-8.61475 10.3550696,-9.74662 0.85408,-0.23118 1.06594,-0.24921000228 2.93239,-0.2494700022824 C 18.651175,-2.8640228e-4 18.844335,0.0164036 19.694265,0.2518336 c 3.5748,0.99026 6.35248,3.2369 8.94899,7.23811 2.52068,3.8843704 4.01792,8.3874604 4.67303,14.0546704 0.16597,1.43574 0.16478,6.92355 -0.002,8.4304 -0.30579,2.76575 -0.88937,5.45357 -1.69328,7.79879 -0.24215,0.70642 -0.48168,1.36177 -0.53229,1.45633 -0.0713,0.13317 -0.004,0.308 0.29948,0.77531 1.12751,1.73773 1.98203,4.26734 2.40443,7.11777 0.20153,1.35996 0.17352,6.03032 -0.0445,7.4245 -0.70159,4.48582 -2.55321,8.08212 -4.72592,9.1789 -3.79299,1.91469 -7.43761,-2.43045 -8.38209,-9.9932 -0.15298,-1.22495 -0.15208,-4.88557 0.002,-6.1312 0.67671,-5.48817 2.90124,-9.55491 5.62825,-10.28922 0.38402,-0.10341 0.40433,-0.13034 0.84837,-1.12513 1.60452,-3.59465 2.32113,-7.80299 2.0624,-12.11163 -0.22629,-3.76864 -0.88956,-6.46533 -2.29562,-9.33342 -2.81278,-5.7375204 -6.9179,-8.4338504 -11.66759,-7.6635204 -2.06488,0.33489 -3.76229,1.29207 -5.5228596,3.1143704 -2.77702,2.87439 -4.63619,7.11508 -5.24939,11.97365 -0.19279,1.52757 -0.16359,5.87611 0.0492,7.3287 0.37144,2.53545 0.99857,4.74463 1.88059,6.62472 l 0.50118,1.06831 0.44544,0.0655 c 2.7558996,0.40505 5.2010296,4.51821 5.8950596,9.9166 0.70808,5.50756 -0.28837,11.16592 -2.55427,14.50455 -1.4123196,2.08095 -3.3465096,2.98188 -5.1000096,2.37553 z m 1.92029,-5.81027 c 1.36812,-0.57164 2.5386396,-2.79981 2.9125596,-5.54429 0.12933,-0.94924 0.13141,-2.85394 0.004,-3.86833 -0.30598,-2.44019 -1.3646096,-4.64158 -2.5821296,-5.36944 -0.94415,-0.56443 -2.04904,-0.38602 -2.87404,0.46408 -0.78371,0.80756 -1.4739,2.28004 -1.83682,3.91877 -0.18969,0.85649 -0.22296,1.27626 -0.224,2.8261 -10e-4,1.94721 0.0953,2.72694 0.49857,4.0236 0.50174,1.61333 1.47152,3.05164 2.3511,3.48703 0.48163,0.23841 1.26277,0.26628 1.75055,0.0625 z m 20.4625096,-0.008 c 0.60615,-0.20654 1.09363,-0.64292 1.62153,-1.45158 2.25832,-3.45941 1.92792,-10.23869 -0.62788,-12.88283 -0.50918,-0.52679 -1.01344,-0.74671 -1.7181,-0.74932 -0.75201,-0.003 -1.26666,0.25385 -1.87274,0.93386 -0.82645,0.92726 -1.49285,2.53293 -1.77615,4.27962 -0.16168,0.99684 -0.18524,3.50325 -0.0424,4.50812 0.311,2.18744 1.27818,4.27634 2.31156,4.99248 0.73236,0.50752 1.3705,0.61963 2.10415,0.36965 z" id="path149" style="fill:#000000;stroke-width:0.0958"/>
</svg>
