<?xml version="1.0" encoding="utf-8"?>
<svg xmlns="http://www.w3.org/2000/svg" xmlns:xlink="http://www.w3.org/1999/xlink" version="1.1" viewBox="0 0 429.38214 138.95529">
	<title>A short handwritten note in Saxon minuscules, which reads as "Corvinus, necandus est. Cadaver aq(ua) forti dissolvendum, nec aliq(ui)d retinendum. Tace ut potes."</title>
	<path d="m 156.36708,137.92582 c -1.68925,-1.68925 -1.16356,-5.57563 1.56006,-11.52994 1.84761,-4.03988 2.37249,-8.91587 1.71801,-15.97604 -0.1539,-1.65483 0.1701,-1.96586 2.15258,-2.0898 4.3177,-0.2673 6.66306,0.57389 7.46593,2.68556 1.2555,3.30237 0.18225,6.22205 -2.50897,6.81275 -1.61595,0.3564 -2.65923,1.26319 -3.40686,2.96662 -1.94319,4.42698 -4.25765,13.29554 -4.06835,15.58938 0.22275,2.69204 -1.07527,3.37851 -2.91276,1.54143 z m 10.02683,-23.32771 c 0.55971,-1.458 -0.78772,-3.40079 -2.35831,-3.40079 -1.31828,0 -1.4094,2.46119 -0.1377,3.73248 1.26117,1.26117 1.91848,1.17369 2.49642,-0.3321 z m 50.53396,18.83335 c -0.42039,-1.09512 0.78043,-5.19081 3.18978,-10.87923 1.20082,-2.8346 1.19353,-3.47612 -0.1053,-9.9144 -0.8177,-4.04636 -1.77471,-6.88359 -2.32106,-6.88359 -0.51151,0 -2.81839,1.0846 -5.12693,2.41057 -3.12053,1.79253 -4.57913,3.23838 -5.68669,5.6376 -0.81931,1.77471 -1.61595,3.48948 -1.76985,3.81024 -0.1539,0.31995 0.88655,0.58846 2.31174,0.59534 3.29508,0.0153 4.90322,1.01979 4.27069,2.66855 -0.3888,1.01695 -1.09634,1.17369 -3.4182,0.75735 -4.202,-0.75289 -5.70419,-2.3243 -5.30437,-5.54806 0.3726,-3.01725 1.08621,-4.08438 5.47714,-8.21056 3.17034,-2.97918 8.84479,-6.00886 11.25414,-6.00886 1.94521,0 3.40605,3.25215 2.76736,6.16045 -0.33615,1.52199 -0.1863,2.88077 0.38475,3.57089 0.79947,0.96349 1.25145,0.94486 3.34569,-0.1377 4.65242,-2.4057 10.64177,-1.07892 10.64177,2.35791 0,1.88892 -1.36161,2.20806 -3.48543,0.81688 -1.88244,-1.23363 -2.10033,-1.20771 -4.68894,0.5508 -1.70586,1.15911 -3.11931,3.00024 -3.80214,4.95473 -1.12995,3.23231 -2.92694,9.36465 -3.25823,11.11944 -0.52893,2.79936 -3.84223,4.33925 -4.67373,2.17201 z M 21.441294,124.73578 c -0.64152,-0.1215 -2.516671,-0.43659 -4.166881,-0.70713 -3.28577,-0.53865 -6.71952,-3.59032 -6.71952,-5.97213 0,-2.51383 3.73248,-8.97508 6.1993,-10.73169 1.29478,-0.92218 2.35426,-1.91484 2.35426,-2.20684 0,-0.2916 -3.55347,-0.61358 -7.89677,-0.71564 -4.3432195,-0.1053 -8.0996395,-0.3888 -8.3475795,-0.63625 -0.98455,-0.98415 3.41334,-3.22461 6.80947,-3.46802 5.7253195,-0.410665 29.8178815,-0.081 30.3140875,0.41553 0.75573,0.75573 -1.125495,3.08246 -2.688795,3.32546 -0.809595,0.12555 -4.310941,1.10403 -7.780941,2.17363 -3.47004,1.07001 -6.619239,1.88771 -6.9984,1.81764 -1.470555,-0.27135 -2.19996,0.10935 -1.30167,0.67959 1.460025,0.92745 0.3726,3.53889 -2.049702,4.93007 -2.80341,1.60906 -3.70332,5.83698 -1.39766,6.56869 2.640197,0.83795 16.750964,-0.51921 17.735843,-1.70586 0.49491,-0.59656 1.557225,-1.08459 2.359935,-1.08459 2.06955,0 1.87353,2.81516 -0.28755,4.17134 -2.753595,1.72611 -13.003537,3.72479 -16.1352,3.14604 z m -3.499201,-14.31594 c 0.2673,-0.42767 0.10935,-0.7776 -0.34425,-0.7776 -0.45279,0 -0.82377,0.3483 -0.82377,0.7776 0,0.42768 0.1539,0.77761 0.34425,0.77761 0.1863,0 0.55931,-0.3483 0.82377,-0.77761 z m 5.832001,-4.6656 c 0,-0.42767 -0.545535,-0.7776 -1.21257,-0.7776 -0.66663,0 -0.995895,0.3483 -0.73143,0.7776 0.2673,0.42768 0.809595,0.77761 1.21257,0.77761 0.40095,0 0.73143,-0.3483 0.73143,-0.77761 z m 99.105116,18.75636 c -1.25631,-1.16235 -6.80031,-2.71107 -10.12447,-2.82811 -4.55528,-0.15795 -5.20069,-0.77436 -4.59327,-4.36946 0.37665,-2.2356 0.16605,-3.59357 -0.79501,-5.05772 -1.74393,-2.66207 -0.52731,-4.05754 2.3818,-2.73213 1.87677,0.85495 2.01447,1.24497 1.77066,4.99441 -0.2511,3.88557 -0.1782,4.06701 1.66982,4.06701 1.66171,0 2.14731,-0.63058 3.44412,-4.4712 1.7739,-5.25418 3.98115,-6.28839 3.31897,-1.5552 -0.22275,1.6038 -0.65205,3.87828 -0.95013,5.0544 -0.42039,1.65767 -0.2673,2.1384 0.68364,2.1384 1.21419,0 5.17651,3.71426 5.17651,4.85207 0,0.79785 -1.07487,0.74763 -1.98288,-0.0932 z m 51.74884,-2.99294 c -1.76054,-2.23844 -1.50498,-6.53711 0.52731,-8.87044 1.5232,-1.74879 5.1326,-2.34252 8.05184,-1.32475 1.91241,0.66663 3.48908,0.56295 7.35225,-0.48236 3.78918,-1.02586 5.29133,-1.13116 6.5461,-0.45967 1.9039,1.01898 2.15217,2.37208 0.43497,2.37208 -0.65651,0 -2.14367,0.60426 -3.3048,1.34258 -4.67589,2.97432 -4.15129,4.37218 1.8306,4.87798 3.72843,0.3159 4.65138,0.66866 4.8794,1.86867 0.2592,1.36971 -0.081,1.4418 -4.60003,0.96957 -5.29226,-0.55323 -7.72031,-2.05456 -7.72031,-4.77337 0,-2.28501 -0.69741,-2.82852 -2.43527,-1.89823 -1.03801,0.55566 -1.45273,1.6447 -1.45273,3.81469 0,3.5474 -0.5828,4.04028 -5.13929,4.34488 -2.86457,0.19035 -3.63488,-0.085 -4.96988,-1.782 z m 7.92751,-2.95407 c 1.71072,-3.75435 -3.13632,-5.27128 -5.77056,-1.8059 -1.96385,2.58309 -1.27616,3.77136 2.18295,3.77136 2.12503,0 2.88117,-0.41391 3.58789,-1.96506 z m 55.57694,4.55706 c -0.90517,-0.90518 -0.55971,-3.14483 0.63788,-4.13878 1.45516,-1.20771 4.96347,-0.3969 5.61291,1.29357 0.83835,2.18416 -4.48763,4.60833 -6.25083,2.84512 z M 70.053525,121.80804 c -4.00626,-1.20771 -5.435667,-3.75354 -3.839805,-6.83972 0.616815,-1.19313 1.030725,-2.61711 0.91935,-3.16467 -0.2673,-1.30289 5.775867,-1.77674 7.932856,-0.62289 0.87156,0.46656 1.58517,1.40454 1.58517,2.08453 0,0.94487 -0.52326,1.13157 -2.219805,0.79218 -2.67057,-0.53379 -5.556195,1.23404 -5.556195,3.40403 0,1.28668 0.55485,1.51105 3.73248,1.51105 3.72357,0 5.59872,0.9635 5.59872,2.87712 0,1.26036 -3.897315,1.24011 -8.152569,-0.0405 z m -11.48337,-0.56498 c -0.74925,-0.43659 -3.19869,-0.92745 -5.4432,-1.09147 -7.377845,-0.53865 -9.018824,-2.14245 -7.294131,-7.12731 1.035585,-2.99295 1.035585,-2.99295 8.929156,-3.13511 6.726321,-0.1215 7.998264,0.0567 8.601228,1.18017 0.617625,1.15385 0.33615,1.28669 -2.208465,1.04409 -5.495688,-0.52407 -7.070652,4.35124 -1.8306,5.66644 2.643435,0.66339 4.107308,1.81521 4.107308,3.23271 0,1.24902 -2.878335,1.3855 -4.861539,0.23085 z m -6.434519,-5.08153 c 1.556415,-1.55642 1.178145,-2.94597 -0.885735,-3.25215 -1.882845,-0.27945 -3.71952,1.69978 -3.092985,3.33234 0.58887,1.53495 2.399625,1.4985 3.97872,-0.081 z m 29.799819,4.56147 c -3.98844,-4.61031 -0.3645,-11.95961 8.723295,-17.6974 3.159405,-1.99422 3.20598,-2.08535 1.84599,-3.588302 -1.52118,-1.68075 -1.70829,-4.764825 -0.69498,-11.463768 0.611145,-4.039875 0.57753,-4.155624 -1.04328,-3.641355 -2.313765,0.73467 -2.20563,-1.208115 0.22275,-4.0014 1.568565,-1.80387 2.14083,-2.03067 3.3048,-1.310985 1.528065,0.94527 1.507815,4.104715 -0.0324,5.214658 -0.562545,0.405405 -0.60264,0.76464 -0.10935,0.974025 0.45927,0.1944 0.68769,2.82285 0.55242,6.355989 -0.2754,7.168257 0.46899,8.900438 3.111615,7.2495 0.97524,-0.609525 3.116885,-1.82817 4.759115,-2.70864 1.64187,-0.88047 3.31655,-2.21859 3.72074,-2.97432 0.60061,-1.12266 0.24705,-1.60623 -1.94157,-2.64951 -1.9278,-0.91935 -2.76696,-1.891755 -2.99943,-3.476115 -0.3483,-2.360745 1.07365,-6.449463 2.96703,-8.541409 0.64071,-0.707535 1.06231,-1.741905 0.93757,-2.29797 -0.12555,-0.567 1.63053,-1.91808 3.99776,-3.072735 2.32348,-1.133595 5.49463,-3.53565 7.04683,-5.338062 1.99665,-2.31822 3.20598,-3.129435 4.13457,-2.773035 0.72171,0.2754 1.3126,0.90477 1.3126,1.39482 0,1.78038 -6.91363,7.146994 -11.22826,8.715843 -2.98323,1.08459 -3.3781,2.47455 -0.96309,3.392685 2.2757,0.865485 3.38378,2.35467 2.27246,3.055725 -0.52974,0.3321 -0.52205,1.78281 0.0243,4.432968 0.72819,3.533625 0.61276,4.369909 -1.12631,8.167837 -1.06515,2.32713 -1.79212,4.666572 -1.61433,5.198702 0.2754,0.822154 -2.58552,6.413584 -3.27969,6.413584 -0.1296,0 -1.23849,-0.52245 -2.46361,-1.16154 -4.778558,-2.49237 -8.843543,-1.09917 -14.957869,5.12555 -6.019353,6.12814 -6.508471,8.60808 -1.7334,8.78956 1.476225,0.0567 2.0898,0.54958 2.270835,1.82655 0.2187,1.55884 -0.08505,1.7496 -2.79531,1.7496 -1.93185,0 -3.47409,-0.49694 -4.221234,-1.3608 z M 109.25262,86.42161 c 1.09472,-2.045655 -0.64354,-4.221072 -3.09663,-3.874635 -1.5066,0.21465 -1.95088,0.791775 -2.14407,2.79531 -0.2268,2.34819 -0.0769,2.5272 2.11127,2.5272 1.50093,0 2.63574,-0.525285 3.12943,-1.447875 z m 22.68653,35.09102 c -1.45355,-0.1782 -3.50123,-0.88452 -4.55006,-1.5718 -1.57707,-1.03316 -1.83465,-1.69655 -1.48837,-3.82887 0.3321,-2.05862 0.0972,-2.75117 -1.17086,-3.42995 -3.02494,-1.61878 0.19035,-2.46442 12.5499,-3.29872 3.28171,-0.2187 2.96095,2.35224 -0.40905,3.28252 -3.45182,0.95337 -8.20534,4.06248 -7.86024,5.1414 0.1377,0.42768 1.61716,0.8914 3.28941,1.02991 1.67224,0.1377 3.47854,0.61601 4.01355,1.06029 1.10727,0.91895 0.58725,2.24937 -0.80514,2.06226 -0.50949,-0.0688 -2.11532,-0.2673 -3.56886,-0.44671 z m 59.07536,-22.472921 c -0.88654,-1.12671 -1.61149,-2.72322 -1.61149,-3.547395 0,-1.723275 3.62596,-9.701937 4.71472,-10.374925 0.40095,-0.24705 0.72819,-0.958635 0.72819,-1.579905 0,-0.883305 -0.68121,-1.0206 -3.12498,-0.629775 -2.68879,0.43011 -3.05653,0.31995 -2.63574,-0.77517 0.54837,-1.429245 3.60005,-2.437695 5.34714,-1.76742 1.87839,0.720495 2.34738,4.320985 0.88573,6.795333 -1.54588,2.61711 -2.40772,9.713317 -1.26522,10.419313 1.19961,0.741555 0.95013,3.508915 -0.3159,3.508915 -0.61033,0 -1.83505,-0.92218 -2.7216,-2.04889 z m 97.33799,1.162351 c -1.47501,-1.486756 -1.21095,-2.342521 1.75041,-5.669879 2.80341,-3.15009 3.4182,-5.65457 1.78767,-7.284816 -1.69897,-1.698975 -2.74144,-0.97443 -3.7426,2.60172 -0.71321,2.547045 -1.33893,3.46356 -2.23965,3.280095 -1.01777,-0.20655 -1.20407,-1.13805 -1.00359,-5.011997 0.2754,-5.299425 -0.32805,-6.207799 -2.91884,-4.393804 -1.32718,0.929475 -1.65726,1.742715 -1.34379,3.30885 0.2268,1.1421 0.11745,2.562435 -0.2511,3.15657 -1.03437,1.673865 -3.16386,-0.493695 -2.97108,-3.02373 0.0891,-1.133595 -0.17415,-2.57661 -0.57834,-3.205575 -0.405,-0.62937 -0.83673,-2.368845 -0.96106,-3.865725 -0.63423,-7.65041 -0.45927,-9.090306 1.64227,-13.529349 2.56487,-5.416673 3.32465,-8.64213 2.19956,-9.337313 -0.44955,-0.27945 -1.20204,0.21465 -1.67265,1.093905 -1.05381,1.969107 -2.3328,1.329207 -2.3328,-1.168425 0,-2.210085 2.60739,-4.260964 4.71592,-3.709395 1.12023,0.2916 1.50498,1.0773 1.50498,3.06909 0,2.81394 -1.23282,8.894972 -2.33725,11.528849 -1.24659,2.973105 -1.47461,5.461141 -0.78125,8.526991 0.44186,1.95291 0.41472,3.42468 -0.0729,4.013145 -1.27251,1.53333 0.65934,2.074005 2.58633,0.72414 2.32065,-1.62567 3.9686,-1.52523 5.66033,0.34425 0.77395,0.85536 2.2441,1.5552 3.26632,1.5552 2.25221,0 5.67612,3.231495 5.67612,5.357259 0,2.24532 -1.35189,5.442633 -3.32667,7.86591 -0.95013,1.1664 -2.07765,2.713095 -2.50533,3.43764 -0.62451,1.058264 -0.96835,1.124684 -1.7496,0.336154 z m -81.86181,-1.886086 c -0.76464,-2.01123 -0.1863,-3.947535 1.95291,-6.558691 1.48068,-1.80549 2.63979,-5.889551 1.976,-6.963125 -1.11902,-1.810755 -3.51783,-0.430515 -5.2616,3.02697 -2.22669,4.414905 -3.0699,5.268321 -4.14461,4.193735 -0.58927,-0.589275 -0.47628,-1.67913 0.3888,-3.749895 1.42803,-3.417795 1.57545,-6.727374 0.3564,-7.948571 -0.47587,-0.475875 -0.71644,-1.31139 -0.5346,-1.85652 0.2349,-0.7047 0.79461,-0.52731 1.93428,0.61236 0.88209,0.88209 1.73543,1.99827 1.89581,2.479815 0.2025,0.60021 1.04733,0.659745 2.69001,0.1863 3.56643,-1.02303 4.98936,0.12555 4.98458,4.028535 -0.002,2.10519 -0.68445,4.37153 -1.9197,6.376604 -1.05381,1.71072 -1.92699,4.24764 -1.93995,5.6376 -0.0284,3.023329 -1.31949,3.312089 -2.37654,0.53217 z m -58.77311,-4.03137 c 0.2916,-2.88684 0.97929,-6.947572 1.53009,-9.023886 0.89627,-3.378915 1.1255,-3.651075 2.18417,-2.592405 0.96714,0.96714 1.05178,2.010015 0.46413,5.719046 -1.25469,7.919491 -2.27651,11.145883 -3.52958,11.145883 -0.98698,0 -1.09147,-0.84807 -0.64881,-5.2488 z m 88.78562,4.026915 c -1.41304,-1.413045 -1.46853,-1.72287 -1.25631,-6.99034 0.24705,-6.065402 -3.05775,-7.907139 -4.46194,-2.48832 -0.63261,2.44215 -0.63261,2.44215 -6.65303,2.419065 -3.3862,-0.0132 -6.40243,-0.405405 -6.89382,-0.89667 -2.96541,-2.96541 1.67184,-13.386465 7.23791,-16.264841 5.62768,-2.91033 9.75199,-1.56411 8.13301,2.65518 -0.42565,1.1097 -0.60507,1.10565 -1.87677,-0.04455 -1.65118,-1.49445 -3.90622,-1.605015 -5.60172,-0.2754 -2.33806,1.83303 -6.17924,8.249688 -6.17924,10.321385 0,1.9197 0.19845,2.05578 2.36439,1.62243 1.33204,-0.2673 3.01402,-0.06885 3.85277,0.456435 2.00475,1.251855 2.35629,0.718065 2.88198,-4.373028 0.44793,-4.341843 1.19718,-5.463572 2.09142,-3.13227 0.32805,0.853335 1.27211,1.157085 3.10635,0.99873 4.45986,-0.38475 5.28324,0.98577 4.78959,7.970238 -0.36045,5.098828 -0.2268,6.167826 0.84969,6.769818 0.70227,0.39285 1.03275,1.110915 0.73346,1.59489 -0.7448,1.20528 -1.67265,1.10403 -3.1181,-0.3402 z M 19.959682,96.522229 c -3.221369,-0.90153 -3.674159,-2.59038 -2.188619,-8.166258 1.718009,-6.447114 1.711934,-8.769181 -0.0243,-9.184104 -1.97559,-0.47223 -4.17733,0.1377 -3.63893,1.01007 0.60588,0.980505 -1.32678,8.693204 -2.35669,9.405477 -0.43862,0.30375 -1.21905,-0.2511 -1.73421,-1.23525 -0.7383195,-1.408995 -0.7136095,-2.74428 0.11745,-6.315286 1.28223,-5.517437 0.93717,-6.609114 -2.0906095,-6.609114 -1.99625,0 -2.20077,-0.17415 -1.3766,-1.1664 1.34258,-1.61757 3.5976195,-1.456785 5.4431995,0.3888 0.8744,0.87399 2.592,1.5552 3.92324,1.5552 1.51105,0 3.09703,0.728595 4.382059,2.014065 1.925775,1.925775 1.996245,2.29878 1.60785,8.525128 -0.2997,4.796213 -0.1296,6.877103 0.647595,7.900497 1.933065,2.548665 1.28709,2.99619 -2.71107,1.877175 z m 234.833528,-0.40095 c -0.49288,-0.59373 -2.89737,-1.32921 -5.344,-1.63377 -2.4462,-0.30375 -5.06027,-0.880875 -5.80871,-1.28061 -1.58314,-0.84483 -1.76053,-3.608955 -0.42039,-6.549781 0.88533,-1.94319 1.1907,-2.043225 5.2488,-1.71315 2.36966,0.19035 3.8714,0.2025 3.3368,0.01823 -0.5346,-0.18225 -0.972,-0.836325 -0.972,-1.452735 0,-0.61641 -0.85617,-1.446255 -1.9035,-1.84437 -1.04693,-0.3969 -2.52032,-1.665765 -3.27483,-2.81718 -1.37174,-2.093445 -1.37174,-2.093445 1.63701,-4.694031 2.35183,-2.0331 3.24162,-2.40732 4.07607,-1.71477 0.88857,0.73791 0.80311,1.13238 -0.51111,2.356695 -2.07765,1.935495 -2.0088,2.42109 0.79582,5.615649 1.38551,1.57788 2.55515,3.93741 2.80787,5.664694 0.23895,1.6281 0.91935,4.459658 1.51348,6.292202 0.59414,1.832625 1.08014,3.669705 1.08014,4.0824 0,1.095525 -1.22675,0.91692 -2.26071,-0.32805 z m -3.32626,-7.279551 c -0.31185,-1.64511 -4.12302,-2.270835 -5.72642,-0.940005 -1.69857,1.409805 -0.59008,2.300805 2.86295,2.300805 2.55271,0 3.07435,-0.2511 2.86375,-1.3608 z m 21.33366,7.557381 c -0.96228,-0.3888 -1.76135,-0.97686 -1.77552,-1.31139 -0.0135,-0.33615 -0.70389,-1.42155 -1.53171,-2.415015 -1.50579,-1.80711 -1.50579,-1.80711 -4.22039,0.26325 -2.71431,2.07036 -2.71431,2.07036 -4.24017,-0.438615 -1.18341,-1.94643 -1.35796,-2.95083 -0.77638,-4.480029 0.41229,-1.084185 0.64759,-2.944755 0.52326,-4.13509 -0.1215,-1.190295 0.1215,-2.227905 0.55161,-2.30607 1.36242,-0.2511 2.77141,3.46599 2.31336,6.098976 -0.83754,4.812939 3.06018,2.56527 5.44351,-3.13875 1.85085,-4.429566 3.86613,-3.822795 2.59484,0.781245 -0.86751,3.14199 0.0405,5.618241 3.13227,8.53254 1.00116,0.94365 1.59286,2.08413 1.31463,2.533275 -0.59171,0.957015 -0.98253,0.95904 -3.32951,0.0153 z M 127.7913,91.817952 c -0.72738,-1.038825 -2.40894,-1.69209 -5.30202,-2.06145 -4.99977,-0.63747 -6.6262,-1.3689 -7.76114,-3.48948 -1.15749,-2.16351 -0.27945,-4.386474 2.20968,-5.587947 1.88649,-0.910845 2.09345,-1.424385 2.10195,-5.207571 0.0112,-4.704845 0.91773,-5.554413 3.86735,-3.621915 3.8475,2.52072 6.58789,9.308641 7.02335,17.395236 0.2025,3.80538 -0.59859,4.771831 -2.13921,2.57256 z m -0.59697,-5.35491 c 3.2e-4,-0.55971 -0.28755,-0.83997 -0.63828,-0.62289 -0.35235,0.2187 -1.20042,-0.26325 -1.8869,-1.06272 -1.98612,-2.319435 -5.97966,-0.707535 -4.94254,1.99503 0.58037,1.51227 7.4667,1.22715 7.46768,-0.31185 z m 175.47899,6.331446 c -0.78975,-0.78975 -0.61803,-3.216105 0.2673,-3.762855 1.34095,-0.82863 3.88111,0.42606 3.88111,1.91727 0,1.81764 -2.88927,3.10311 -4.1472,1.84518 z M 84.405186,89.403828 c -2.875095,-2.762505 -3.202335,-3.4263 -2.77911,-5.6376 1.80549,-9.423986 1.32354,-11.737791 -2.738205,-13.153752 -2.876715,-1.00278 -2.516265,-2.493585 0.679995,-2.811105 2.039985,-0.2025 2.717145,0.21465 4.423045,2.7216 1.91565,2.81637 1.988955,3.296295 1.497285,9.829836 -0.50625,6.730776 -0.47547,6.907315 1.543455,8.779428 2.078865,1.927395 2.66247,3.40281 1.34622,3.40281 -0.39285,0 -2.180925,-1.408995 -3.97305,-3.13146 z m 73.940084,-0.1053 c -1.54184,-1.65483 -1.9274,-2.59524 -1.66131,-4.050324 0.18225,-0.992655 -2.349,-3.5964 -3.49515,-3.5964 -0.53946,0 -1.1097,-0.38475 -1.26725,-0.85779 -0.15795,-0.47223 -1.80549,-0.97119 -3.66282,-1.110105 -4.10496,-0.30375 -5.28383,-1.25955 -3.61786,-2.925315 0.66906,-0.66906 1.22391,-2.378565 1.23363,-3.799305 0.009,-1.420335 0.69214,-4.069926 1.51713,-5.887566 1.59367,-3.51135 1.57545,-3.546585 -1.72854,-3.328695 -1.32314,0.0891 -2.14286,-0.2511 -2.15055,-0.889785 -0.01,-0.843615 -0.1296,-0.84645 -0.6561,-0.0153 -0.41756,0.65853 -2.12139,0.97281 -4.8481,0.89505 -2.31214,-0.06885 -5.42866,-0.08505 -6.92554,-0.03847 -7.4439,0.2187 -9.71477,-1.64592 -7.41413,-6.095007 1.62486,-3.142392 4.75284,-4.637126 9.62402,-4.59942 3.71304,0.02835 4.01112,0.1701 4.01112,1.907955 0,1.032345 -0.69984,2.476167 -1.5552,3.208407 -0.85536,0.732645 -1.5552,1.59165 -1.5552,1.90917 0,1.190295 3.06828,2.15703 5.37953,1.69452 1.81359,-0.3645 2.39679,-0.899502 2.39679,-2.205627 0,-2.42028 2.44255,-4.358529 6.11343,-4.850888 7.20082,-0.965925 9.4099,1.68399 5.8508,7.017999 -3.67497,5.507798 -5.86424,10.479213 -5.60358,12.725384 0.2025,1.72692 1.07973,2.560005 4.50842,4.268943 2.34292,1.167615 4.70857,2.737395 5.2575,3.488265 0.93677,1.28061 1.07285,1.25793 2.21171,-0.36855 1.24335,-1.77552 8.45368,-7.546041 11.58713,-9.273731 4.08309,-2.25099 4.51858,-13.089924 0.75451,-18.777903 -2.57985,-3.898533 -2.25382,-5.469609 0.66015,-3.177633 1.20164,0.945273 2.68151,1.478658 3.3696,1.214598 1.90269,-0.730215 7.20252,0.995085 8.2603,2.68839 1.21541,1.946025 1.53171,1.919295 5.27209,-0.441855 2.21535,-1.39887 3.49718,-1.76499 4.45577,-1.274535 2.58957,1.325565 7.08912,1.557225 10.4714,0.539055 5.07485,-1.527255 8.37029,0.66501 8.37029,5.568909 0,1.41507 0.13365,2.572965 0.29565,2.572965 1.07042,0 5.83374,-2.449845 6.63119,-3.41091 0.79704,-0.960255 0.68283,-1.347027 -0.64517,-2.176062 -0.88775,-0.554445 -1.61432,-1.225125 -1.61432,-1.48959 0,-0.2673 2.01203,-0.742365 4.47118,-1.0611 7.61174,-0.98577 9.07569,-0.91611 9.34781,0.44712 0.1701,0.862245 -1.15263,1.93185 -4.25736,3.437232 -6.94481,3.36717 -7.17137,5.479488 -0.5508,5.136818 2.65599,-0.1377 3.50041,0.07695 3.25377,0.8262 -0.405,1.227555 -7.3262,1.81683 -8.63132,0.735075 -0.50138,-0.41553 -2.57336,-0.73062 -4.60516,-0.699435 -3.15455,0.0486 -3.6936,0.2835 -3.6936,1.609065 0,1.520775 -0.0324,1.5228 -1.60988,0.0972 -1.2312,-1.114155 -1.50174,-2.032695 -1.15101,-3.9042 0.58158,-3.09987 -0.1296,-4.988787 -1.88163,-4.988787 -0.99387,0 -1.7176,1.216617 -2.65923,4.471197 -0.71158,2.45916 -1.84396,6.04584 -2.51586,7.9704 -0.6723,1.92456 -1.55398,4.63644 -1.95939,6.0264 -0.41998,1.438965 -1.25347,2.5272 -1.93549,2.5272 -0.97767,0 -1.09715,-0.60912 -0.64881,-3.3048 0.2997,-1.81764 1.07122,-4.324064 1.7091,-5.569803 0.63787,-1.24578 1.79536,-4.111439 2.57175,-6.36818 1.69978,-4.94043 1.0129,-5.943088 -3.57575,-5.218017 -3.44776,0.544722 -4.19855,1.296807 -4.21572,4.220748 -0.006,1.118607 -0.73751,2.955687 -1.62405,4.082924 -1.28183,1.629315 -2.03877,1.94886 -3.6936,1.558035 -1.14494,-0.2673 -2.80382,-1.14534 -3.68672,-1.94481 -0.93393,-0.84564 -2.76129,-1.45314 -4.37015,-1.45314 -2.62116,0 -2.81678,0.1863 -3.76407,3.568455 -0.96674,3.452625 -0.93353,3.622725 1.0206,5.2488 1.11051,0.92421 2.12746,2.555145 2.25909,3.624345 0.13365,1.0692 0.76383,1.977615 1.40535,2.01933 3.95239,0.25515 5.26674,2.93868 1.56573,3.197475 -2.47496,0.1701 -7.00901,3.06909 -7.00901,4.47687 0,1.266435 2.80179,3.52593 4.37201,3.52593 0.2673,0 0.0851,0.481545 -0.405,1.069605 -0.72859,0.87804 -1.38631,0.89829 -3.67375,0.1134 -3.62192,-1.24497 -4.43751,-2.62035 -2.9241,-4.930349 1.61797,-2.46969 0.83997,-4.026915 -2.01164,-4.026915 -1.2964,0 -2.3571,-0.3483 -2.3571,-0.7776 0,-0.42768 1.76054,-0.7776 3.9123,-0.7776 4.29345,0 5.37557,-1.063125 3.8961,-3.82725 -0.89829,-1.677915 -3.1428,-2.23965 -3.1428,-0.786105 0,0.456435 -0.63261,0.62937 -1.40535,0.38475 -1.47339,-0.46737 -3.85155,1.66293 -7.02339,6.293214 -2.49034,3.63528 -2.25463,5.243616 0.68202,4.656285 1.76459,-0.35235 2.48549,-0.1539 2.84796,0.79299 0.70875,1.8468 -1.58314,3.16548 -5.64254,3.24729 -1.93306,0.03848 -3.83008,0.2673 -4.21633,0.50463 -0.38475,0.23895 -1.42277,-0.3402 -2.30364,-1.28547 z m 3.9366,-3.506085 c -0.91652,-1.57626 -1.13805,-1.07163 -0.3888,0.88371 0.2673,0.69498 0.64881,1.099575 0.84888,0.899505 0.2025,-0.2025 -0.007,-1.00278 -0.46089,-1.783215 z m 29.18758,-22.496819 c 1.75324,-0.47061 2.78964,-2.793285 2.07603,-4.652559 -0.2835,-0.739935 -1.07204,-0.92907 -2.47415,-0.593325 -2.58714,0.61965 -2.34495,0.35235 -2.9241,3.24648 -0.52366,2.61792 -0.0486,2.903445 3.32181,1.99908 z m -61.1156,-3.4668 c 1.5228,-1.5228 1.7739,-3.180057 0.48155,-3.177222 -1.42398,0.0032 -6.02008,3.298722 -5.58418,4.003827 0.80028,1.29519 3.4024,0.873585 5.10259,-0.82701 z m 21.29106,0.0972 c 1.70788,-1.8873 0.98415,-3.159402 -1.79699,-3.159402 -2.82811,0 -5.16075,1.743927 -4.53029,3.386607 0.68162,1.776735 4.64231,1.63458 6.3272,-0.2268 z m 30.75954,-1.094715 c 0,-2.186592 -2.59807,-4.760286 -4.18944,-4.149627 -0.93069,0.3564 -0.98293,0.93798 -0.28755,3.204762 0.65651,2.138805 1.26239,2.768175 2.66328,2.768175 1.38429,0 1.81359,-0.43173 1.81359,-1.82331 z m 42.37921,-2.842287 c 0.2673,-0.42768 0.10935,-0.7776 -0.34425,-0.7776 -0.45281,0 -0.82379,0.3483 -0.82379,0.7776 0,0.42768 0.1539,0.7776 0.34425,0.7776 0.1863,0 0.55932,-0.3483 0.82379,-0.7776 z M 70.746966,88.318063 c -1.32273,-0.57591 -3.94713,-1.30167 -5.832,-1.61271 -4.688726,-0.773955 -5.394641,-1.47582 -4.538552,-4.512874 1.028295,-3.648645 3.352995,-5.20826 7.761056,-5.20826 2.065905,0 3.97224,-0.3483 4.236583,-0.7776 0.671085,-1.085805 5.324859,-0.97362 6.45408,0.1539 1.492425,1.492425 1.098765,1.932255 -1.400895,1.565325 -3.535245,-0.518805 -6.371055,1.65969 -6.070666,4.663778 0.26325,2.63736 1.077705,3.24972 5.624235,4.231561 1.67832,0.3645 3.19464,1.096335 3.3696,1.630935 0.43821,1.33812 -6.441242,1.24092 -9.603198,-0.1377 z m -2.64951,-5.049418 c 0,-0.39285 0.21465,-1.26765 0.47223,-1.944 0.3483,-0.911655 -0.01215,-1.229985 -1.39968,-1.229985 -2.052135,0 -3.73815,1.297215 -3.73815,2.87712 0,0.60507 0.93717,1.01088 2.3328,1.01088 1.28304,0 2.3328,-0.31995 2.3328,-0.714015 z m -36.936,4.738986 c -6.295482,-0.50949 -7.401254,-4.994744 -2.96703,-12.035588 2.323485,-3.689145 3.239595,-4.490316 7.632913,-6.672618 6.403415,-3.18087 8.9424,-2.77506 8.9424,1.42965 0,2.95893 -0.88533,3.50811 -2.406105,1.492425 -1.178145,-1.562085 -1.52037,-1.630935 -3.670515,-0.739935 -1.304505,0.54027 -3.881925,2.699325 -5.727955,4.797792 -1.84599,2.09871 -3.76407,3.815505 -4.26222,3.815505 -0.60831,0 -0.718065,0.70227 -0.3321,2.1384 0.439425,1.64268 1.05381,2.146905 2.651535,2.174445 2.37978,0.0405 3.909465,1.25712 3.519045,2.797335 -0.1863,0.72333 -1.24416,0.975645 -3.3777,0.80271 z m 10.1088,-1.036395 c -4.563257,-1.771065 -6.07905,-3.44574 -5.437328,-6.007203 0.83835,-3.3453 5.681138,-6.101649 6.992528,-3.979935 0.2673,0.42768 1.139265,0.7776 1.944,0.7776 2.07279,0 2.733345,1.48797 1.297215,2.923695 -0.98334,0.98334 -1.44423,1.03275 -2.38221,0.25515 -1.74312,-1.44666 -4.74741,-0.763425 -4.74741,1.07973 0,1.03194 0.765855,1.76823 2.3328,2.242485 3.865725,1.16964 5.882382,2.291085 5.60682,3.11769 -0.42201,1.266435 -1.49202,1.18827 -5.60682,-0.408645 z M 239.23425,77.04906 c -2.08777,-2.08737 -2.11653,-7.092927 -0.0648,-11.34 0.82661,-1.71072 1.5143,-4.260884 1.52888,-5.667041 0.0243,-2.33037 -0.162,-2.53692 -2.11208,-2.3328 -3.0541,0.31995 -2.98971,-2.54988 0.081,-3.62961 1.91039,-0.671895 2.42514,-0.52731 3.6936,1.03923 1.85774,2.294325 1.8549,4.38372 -0.0135,10.003862 -2.15541,6.481701 -2.66004,10.222281 -1.55763,11.550438 1.51592,1.82655 0.2106,2.142045 -1.55479,0.37665 z m 128.36366,-0.2511 c -1.3847,-1.384695 -1.0769,-4.855262 0.76788,-8.652542 1.86543,-3.839805 1.53454,-5.935315 -0.93798,-5.935315 -1.78889,0 -4.21334,2.389905 -5.45373,5.375443 -1.19354,2.87307 -2.05214,1.072845 -2.4701,-5.181043 -0.3807,-5.719448 0.1701,-6.894231 1.92861,-4.082397 1.17815,1.886085 2.72403,1.982475 4.59837,0.2835 4.10603,-3.715875 8.25324,7.139013 4.94115,12.932902 -0.61114,1.0692 -1.12347,2.710665 -1.13886,3.647835 -0.0324,2.095065 -1.03194,2.81313 -2.236,1.609065 z m 53.11536,0.1458 c -0.4941,-0.79947 2.65477,-6.16325 3.62515,-6.17378 1.00521,-0.01125 2.39112,-4.711729 1.93023,-6.547999 -0.26325,-1.04895 -1.21662,-2.14164 -2.11896,-2.42757 -2.49925,-0.792987 -4.05868,1.306935 -4.05868,5.466325 0,2.83824 -0.2511,3.519045 -1.2312,3.32748 -0.94932,-0.1863 -1.2312,-1.24578 -1.2312,-4.627854 0,-5.058811 -0.3726,-5.671941 -3.03872,-5.002719 -1.80022,0.451572 -1.96182,0.874797 -2.17485,5.680527 -0.2106,4.767255 -0.3321,5.089878 -1.47663,3.940245 -0.68607,-0.688905 -1.46731,-2.858895 -1.73664,-4.822942 -0.2673,-1.963845 -1.02019,-4.597074 -1.669,-5.851518 -0.64881,-1.25469 -1.17936,-2.82285 -1.17936,-3.485835 0,-1.72854 2.12706,-1.486755 3.11242,0.35235 0.73427,1.37214 1.34055,1.49931 5.06924,1.060695 2.79409,-0.32805 4.61092,-0.1863 5.33965,0.41877 0.6237,0.51759 1.96587,0.70065 3.08367,0.419985 2.30607,-0.578745 5.56673,2.14893 6.36342,5.323276 0.52731,2.102355 -2.49966,8.961314 -5.30482,12.019307 -1.77714,1.937115 -2.54745,2.154195 -3.30359,0.930285 z M 300.368,75.71661 c -0.2673,-0.2673 -0.1296,-1.16397 0.3078,-1.98612 1.45435,-2.71755 3.01603,-8.752253 3.02494,-11.686842 0.009,-3.302367 -1.86016,-4.839869 -4.9444,-4.065752 -1.73867,0.43659 -5.36654,3.762852 -4.76258,4.367031 0.41229,0.41229 -1.63539,8.54388 -2.75602,10.946583 -1.23363,2.64465 -3.44736,2.94921 -2.82164,0.3888 0.2349,-0.96228 0.83957,-4.144284 1.34339,-7.071138 0.85698,-4.981459 0.8104,-5.463895 -0.73224,-7.550088 -0.90639,-1.22553 -1.64754,-2.59281 -1.64754,-3.037905 0,-1.096335 2.01447,-1.021005 3.88192,0.1458 1.21541,0.75897 2.0489,0.745605 4.07187,-0.0648 4.0697,-1.631745 8.94375,-1.631745 10.42014,-3.24e-4 1.21743,1.34541 1.34177,1.34055 3.21489,-0.13365 2.59929,-2.044845 3.64946,-1.934685 5.47718,0.574695 1.39239,1.9116 1.72732,2.02014 3.60085,1.1664 4.58232,-2.087775 6.82449,-0.55323 7.14515,4.889603 0.1863,3.149685 0.0365,3.437235 -2.20401,4.217953 -5.03886,1.756485 -8.70569,0.52407 -8.35919,-2.809485 0.2673,-2.564055 -0.0689,-3.721137 -1.61838,-5.58114 -1.30005,-1.56087 -1.72084,-1.686015 -2.7625,-0.82134 -1.90431,1.58031 -4.43142,7.546646 -3.96009,9.349544 0.23895,0.91125 -0.23085,2.692845 -1.07487,4.075474 -0.82377,1.35108 -1.49931,3.06909 -1.50093,3.81753 -0.001,1.31868 -2.29919,1.91565 -3.3453,0.86994 z m 22.00465,-12.732795 c 1.83951,-1.39725 1.87191,-1.54872 0.60629,-2.823657 -1.16559,-1.17369 -1.58922,-1.21257 -3.29184,-0.2997 -3.15657,1.689252 -3.66404,5.759542 -0.61803,4.958857 0.74803,-0.19845 2.23479,-1.021815 3.30399,-1.83384 z M 92.833722,74.246338 c -0.39285,-0.39285 0.60183,-4.242861 2.835405,-10.988622 1.027485,-3.102297 0.91125,-4.613068 -0.782865,-10.183681 -0.72252,-2.37654 0.39285,-2.201985 2.48103,0.3888 1.724085,2.1384 1.724085,2.1384 5.223888,0.31185 4.54001,-2.37249 5.47532,-1.75527 3.69158,2.43486 -1.59489,3.74625 -1.37984,5.225995 0.75897,5.225995 0.81972,0 1.4904,0.47871 1.4904,1.06434 0,0.73062 -0.75087,0.97686 -2.39396,0.7857 -3.53362,-0.41148 -4.02165,-0.957015 -3.47247,-3.883137 0.3645,-1.93185 0.2187,-2.6325 -0.55242,-2.6325 -1.58557,0 -2.912351,1.657665 -2.912351,3.63852 0,2.073192 -3.032235,11.857385 -4.11399,13.274399 -0.787725,1.031535 -1.587195,1.232415 -2.253825,0.565785 z m 311.514528,-2.07198 c -1.24942,-0.95985 -2.52153,-2.10681 -2.8269,-2.549475 -0.30375,-0.44226 -2.31214,-0.808785 -4.45896,-0.81405 -5.02341,-0.01215 -6.69133,-1.65402 -7.29616,-7.183404 -0.24705,-2.24532 -0.2025,-4.077054 0.10125,-4.070533 1.86138,0.03847 2.83743,1.77147 2.85768,5.066347 0.0225,3.60693 0.0225,3.60693 3.05815,3.12417 4.03907,-0.64233 4.35096,-0.90315 4.35096,-3.63366 0,-2.858895 1.34582,-5.567208 2.43324,-4.895316 0.49572,0.3078 0.59657,1.97478 0.2673,4.385462 -0.54715,3.97953 0.54959,7.605292 2.30081,7.605292 0.46615,0 1.31098,0.74115 1.87677,1.64673 1.59003,2.54583 -0.0225,3.34449 -2.65964,1.318275 z m -56.32218,-2.584305 c -1.6119,-1.715985 -2.26719,-1.89459 -5.41809,-1.47663 -4.4682,0.592515 -5.81311,-0.72819 -5.93538,-5.829084 -0.0486,-1.965465 -0.22275,-4.235368 -0.3888,-5.04468 -0.16605,-0.809187 0.0932,-1.612707 0.58077,-1.784832 1.10565,-0.39285 2.61549,3.800112 2.61549,7.260473 0,2.88927 1.01777,3.284145 3.67295,1.42479 1.2474,-0.87399 1.74757,-2.1384 1.92253,-4.86 0.2835,-4.37906 1.69007,-4.907625 2.0331,-0.76302 0.2673,3.267945 1.39563,3.810645 2.41745,1.1664 1.16275,-3.007527 14.21829,-15.861704 17.87062,-17.594416 2.90061,-1.37619 3.71912,-1.47744 5.37147,-0.665415 2.49804,1.22796 3.98196,3.505275 2.79207,4.285103 -0.47061,0.3078 -1.27008,1.34865 -1.77714,2.31093 -1.01047,1.919295 -3.1995,2.383425 -3.1995,0.678375 0,-0.58887 0.52488,-1.507005 1.1664,-2.039175 1.76985,-1.468935 1.40373,-2.3328 -0.98901,-2.3328 -2.01771,0 -7.501,3.663225 -8.95126,5.980271 -0.33615,0.535413 -2.6969,3.133893 -5.2488,5.774047 -2.99538,3.099462 -4.63953,5.449677 -4.63953,6.631953 0,1.93509 1.08742,2.440125 2.0169,0.935955 0.38475,-0.62046 0.8752,-0.45522 1.60137,0.537435 0.57591,0.78813 1.04773,1.715985 1.04773,2.061855 0,1.103625 -5.03187,0.67473 -6.82537,-0.58158 -2.14893,-1.50498 -2.23439,-0.42039 -0.1701,2.200365 2.87266,3.651885 1.58395,5.073476 -1.56249,1.724085 z m 37.13778,-0.71361 c -0.74844,-0.55323 -1.3608,-1.88811 -1.3608,-2.967435 0,-2.250585 -2.46766,-3.319785 -4.7913,-2.07603 -2.04241,1.093095 -1.76499,2.122605 0.64881,2.40813 2.6321,0.31185 3.41132,2.19429 0.90234,2.17971 -3.27969,-0.01912 -5.16271,-0.884925 -5.63112,-2.588355 -0.66379,-2.41461 3.38499,-5.954512 6.80973,-5.954512 1.41872,0 2.79207,-0.2106 3.05127,-0.47142 0.72009,-0.72009 -2.77425,-5.712644 -4.10017,-5.858201 -0.64152,-0.0729 -1.59044,-0.16605 -2.10843,-0.21465 -1.20447,-0.10935 -2.9723,-1.8549 -2.42879,-2.39841 0.2268,-0.2268 2.04444,-0.48438 4.03785,-0.571053 2.96379,-0.1296 3.98318,0.2025 5.59164,1.809543 1.88285,1.882845 1.93914,2.20239 1.31301,7.447137 -0.40095,3.364335 -0.3645,6.132348 0.10125,7.169999 0.98294,2.2032 -0.21465,3.42954 -2.0335,2.08413 z M 269.77704,68.042548 c -0.31185,-0.81405 -1.58193,-1.1664 -4.20178,-1.1664 -6.06132,0 -7.74341,-0.977265 -7.74341,-4.497768 0,-4.421952 1.37781,-5.827461 5.62941,-5.742087 4.52183,0.0891 5.40777,-1.53657 2.49318,-4.578727 -2.00758,-2.095473 -7.49529,-4.189526 -9.70731,-3.704134 -0.62532,0.1377 -1.13683,-0.2754 -1.13683,-0.917325 0,-1.682775 6.70161,-1.31625 9.92055,0.54189 3.14118,1.813591 6.56257,7.891024 5.64103,10.019984 -0.3564,0.81972 -0.535,1.840725 -0.40095,2.268405 0.1377,0.42768 0.33615,1.82736 0.45117,3.1104 0.1134,1.28304 0.44955,3.12012 0.74682,4.0824 0.60993,1.97397 -0.95215,2.512215 -1.69249,0.5832 z m -1.98409,-5.974114 c 0.32805,-2.85444 -1.76499,-3.868155 -5.10102,-2.46888 -4.22274,1.77147 -2.69649,5.192464 2.13516,4.784751 2.30769,-0.1944 2.76169,-0.54918 2.96581,-2.31579 z m 61.34022,4.787424 c -2.52923,-1.98936 -3.30683,-4.351644 -1.96466,-5.96808 0.67149,-0.80838 1.03599,-3.42063 1.03599,-7.416924 0,-5.458594 -0.2025,-6.332057 -1.7496,-7.587193 -1.68399,-1.365255 -2.45227,-4.668313 -1.0858,-4.668313 1.30248,0 4.87701,3.932145 5.985,6.584004 1.2559,3.005913 1.52685,7.751744 0.405,7.057209 -1.22229,-0.75573 -1.71072,0.97686 -0.5747,2.03796 0.71969,0.672297 0.94487,2.093847 0.69012,4.355489 -0.29565,2.62116 -0.0729,3.5802 1.01169,4.373838 1.45881,1.06677 1.004,2.80746 -0.73264,2.80746 -0.5585,0 -1.91727,-0.70875 -3.01847,-1.57545 z M 47.68902,65.222088 c -2.440935,-1.99422 -2.98971,-2.178495 -3.387825,-1.140075 -0.73548,1.916865 -2.575395,1.541835 -2.06226,-0.42039 0.3159,-1.20366 0.1377,-1.550745 -0.6561,-1.2636 -0.5994,0.2187 -0.99387,0.81567 -0.876015,1.32921 0.1458,0.63666 -0.3483,0.7533 -1.5552,0.36855 -2.05497,-0.65772 -6.176453,-1.12428 -12.406973,-1.404945 -4.456579,-0.2025 -6.300382,-1.09431 -7.716584,-3.74058 -0.58199,-1.08783 -0.3888,-1.985715 0.781648,-3.629607 1.400895,-1.96749 1.94157,-2.16108 5.452677,-1.95129 2.229525,0.13365 5.089027,-0.2673 6.682014,-0.93069 4.192033,-1.751625 6.17139,-0.0016 2.057805,1.818855 -1.21743,0.53865 -2.60982,1.84923 -3.09339,2.911542 -0.483975,1.062315 -1.41264,1.93185 -2.06307,1.93185 -1.43937,0 -1.515915,-0.70227 -0.2025,-1.85814 0.539865,-0.475062 0.830655,-0.775167 0.64638,-0.667032 -0.1863,0.1053 -0.88857,-0.2997 -1.564515,-0.910035 -1.05057,-0.944865 -1.59813,-0.950535 -3.75678,-0.03848 -4.54977,1.920507 -2.5191,6.365665 2.27934,4.989475 1.218645,-0.3483 3.404835,-0.442665 4.858542,-0.20655 3.186945,0.517185 5.419588,-0.84969 7.390723,-4.525345 0.901935,-1.68237 2.264355,-2.85687 3.83535,-3.30723 1.340145,-0.38475 2.43648,-1.11213 2.43648,-1.617165 0,-1.288308 -3.19302,-4.088924 -5.045449,-4.42556 -1.903905,-0.34425 -2.61549,-2.98485 -0.804735,-2.98485 2.09547,0 5.634562,2.17728 7.247637,4.459455 1.95858,2.770608 2.82123,6.599235 2.597265,11.522453 -0.14175,3.117285 0.14985,4.226823 1.41264,5.369328 1.600965,1.448685 2.09142,2.77668 1.00845,2.728485 -0.31995,-0.01425 -1.89378,-1.09674 -3.495555,-2.405295 z m -3.794445,-4.27433 c 2.04525,-0.40905 2.43,-0.83997 2.43,-2.7216 0,-1.848822 -0.32805,-2.235597 -1.888515,-2.235597 -2.268405,0 -4.332326,1.878792 -4.332326,3.943482 0,1.6524 0.25515,1.720845 3.790841,1.013715 z M 9.1941735,65.550624 c -1.24213,-0.23895 -1.7496,-0.88533 -1.7496,-2.22669 0,-2.08494 -1.34703,-2.560005 -2.05173,-0.72333 -0.70065,1.82574 -1.65969,1.384695 -2.96055,-1.3608 -1.87515004,-3.95847 -1.98936004,-7.527773 -0.3402,-10.688882 2.40894,-4.621415 8.6286495,-8.369406 14.4016795,-8.678219 2.69811,-0.1458 3.539295,0.1944 5.224217,2.11329 3.972645,4.520246 1.31544,7.631216 -2.970267,3.47733 -2.88887,-2.80017 -3.55347,-2.86011 -7.96712,-0.723735 -5.6121295,2.716741 -7.2369895,7.960684 -3.7308595,12.040894 1.24618,1.450305 1.7824,2.80989 1.50417,3.814695 -0.2835,1.03518 -0.2025,1.2312 0.2511,0.58158 0.52488,-0.75087 1.6503695,-0.79623 4.8226595,-0.1944 2.2761,0.43173 5.31518,0.78489 6.753695,0.78489 2.727675,0 3.5073,1.04652 1.385505,1.86057 -1.34217,0.51516 -9.76686,0.463725 -12.5724095,-0.07695 z M 80.57664,64.427964 c -1.421145,-1.157895 -2.55636,-1.43127 -4.460306,-1.074465 -4.097992,0.76869 -5.824831,-0.63423 -5.538375,-4.49955 0.23895,-3.252552 0.23895,-3.252552 -2.45025,-3.033042 -2.455515,0.2025 -3.875445,1.180167 -3.906225,2.696487 -0.0061,0.31995 0.488025,0.5832 1.09917,0.5832 1.32435,0 3.554685,2.083725 3.554685,3.321405 0,0.577935 -0.26325,0.615195 -0.768285,0.10935 -0.4536,-0.4536 -2.76372,-0.56457 -5.6376,-0.27135 -7.053075,0.71928 -9.499194,-0.76059 -8.287191,-5.012807 0.96228,-3.376482 2.51586,-4.259665 7.294982,-4.147723 2.274885,0.05265 4.607685,-0.2835 5.183959,-0.74925 2.121795,-1.71315 5.758736,-1.942383 7.551306,-0.475875 1.66941,1.36566 1.67751,1.46286 0.3969,4.707679 -1.494855,3.782697 -1.090665,4.688804 1.55439,3.483807 1.51065,-0.688095 1.95048,-1.647135 2.3976,-5.224983 0.77274,-6.185811 2.45268,-5.329762 2.11167,1.07649 -0.1863,3.504867 0.09315,5.354907 1.021005,6.772083 1.76499,2.69325 1.178145,3.60774 -1.11537,1.73907 z M 59.676858,59.366517 c 2.054565,-1.859355 1.86219,-3.677802 -0.32805,-3.091362 -0.96228,0.2592 -2.01204,0.47385 -2.3328,0.47952 -0.722115,0.01305 -0.773145,2.671782 -0.0648,3.380127 0.76383,0.76383 1.15344,0.65367 2.725245,-0.76869 z m 26.305236,2.891295 c -1.74231,-1.15101 -1.36809,-7.489379 0.72333,-12.265506 1.27251,-2.905876 2.90547,-4.90933 5.774287,-7.08584 4.548839,-3.4506 6.859161,-4.230792 9.526649,-3.21651 2.1789,0.82863 2.3972,2.895345 0.66096,6.253159 -1.45476,2.813131 -2.881166,2.226285 -2.54461,-1.047735 0.3483,-3.372435 -1.097551,-3.443715 -4.655354,-0.23085 -1.68561,1.522395 -3.415365,2.768175 -3.84426,2.768175 -0.428895,0 -1.574235,2.469286 -2.544615,5.487106 -1.345815,4.18555 -1.54872,5.702559 -0.855765,6.395716 0.692955,0.692955 1.270485,0.68283 2.43405,-0.0405 2.28339,-1.42641 3.10149,-1.16478 3.10149,0.99144 0,1.131165 -0.44712,1.944 -1.0692,1.944 -0.58806,0 -2.07522,0.1863 -3.3048,0.40986 -1.22958,0.2268 -2.76048,0.0648 -3.402,-0.36045 z m 51.515996,-12.46752 c -0.96228,-0.412695 -1.7496,-1.287091 -1.7496,-1.942381 0,-1.26441 1.73988,-1.466505 4.22897,-0.492075 3.75152,1.468531 12.18228,-1.83627 18.00614,-7.058907 1.53495,-1.376189 4.20329,-1.282229 4.20329,0.14985 0,0.820125 -6.79986,5.680935 -10.80714,7.725335 -3.61138,1.842345 -11.27767,2.736588 -13.88166,1.61919 z m 171.62575,-5.890847 c -1.68561,-2.03067 -1.11172,-6.25324 1.74353,-12.833356 0.96997,-2.235195 4.50669,-4.38048 4.50669,-2.73375 0,0.533385 -0.52083,2.687175 -1.1579,4.786857 -0.63706,2.09952 -1.16194,5.234341 -1.1664,6.966445 -0.012,4.376389 -1.9201,6.230317 -3.92607,3.81348 z M 81.048222,42.12433 c -1.637415,-1.809135 -1.66374,-6.699996 -0.06885,-12.455086 1.959795,-7.064618 1.860975,-6.862442 2.709045,-5.541089 0.506655,0.789345 0.590085,0.3888 0.2673,-1.288305 -0.27135,-1.42884 -0.1134,-2.65113 0.3888,-2.96217 1.060695,-0.655289 1.13643,-3.547799 0.09315,-3.547799 -0.41958,0 -0.986175,0.89019 -1.25955,1.97802 -0.614385,2.447009 -1.924965,2.122604 -2.86902,-0.71037 -1.61919,-4.85684 5.636101,-7.257801 7.857486,-2.600506 1.21581,2.549071 0.53946,6.776298 -1.084185,6.776298 -0.6075,0 -1.104435,0.3483 -1.104435,0.7776 0,0.42768 0.36045,0.7776 0.79785,0.7776 0.446715,0 0.243,1.069605 -0.460485,2.43243 -2.28582,4.420211 -3.459105,9.694931 -3.06828,13.796528 0.405,4.242131 -0.12555,4.860445 -2.202795,2.566889 z m 85.217548,-1.882845 c -0.96268,-1.81764 -1.7496,-4.04595 -1.74838,-4.951449 0.002,-0.90558 1.57707,-3.99492 3.50122,-6.864831 1.92456,-2.86983 3.4992,-5.736379 3.4992,-6.369678 0,-0.637065 0.3807,-0.91611 0.85253,-0.62451 0.52204,0.324 0.74803,-0.0033 0.5832,-0.840375 -0.16605,-0.844019 -1.11213,-1.456784 -2.47172,-1.601369 -1.93023,-0.2025 -2.37411,0.1701 -3.5887,3.024944 -0.76221,1.79253 -1.59489,3.864915 -1.85045,4.606268 -0.63747,1.851255 -2.86497,0.875205 -2.82123,-1.236465 0.0405,-2.05254 1.69533,-8.314852 2.54421,-9.636813 1.06353,-1.65645 5.53092,-1.156275 7.39498,0.82782 1.98936,2.117745 2.33725,7.850925 0.59535,9.803065 -0.60264,0.675135 -1.9683,2.87793 -3.03467,4.894385 -1.72125,3.25539 -1.84761,4.04028 -1.12347,6.9984 0.44874,1.832624 1.15709,3.768929 1.57464,4.303651 0.54797,0.701865 0.35235,0.972 -0.69822,0.972 -0.92137,0 -2.10073,-1.215 -3.2076,-3.3048 z m -126.155637,0.7776 c 0.0037,-0.5346 0.56457,-4.82112 1.2474,-9.5256 1.929015,-13.296028 1.78038,-13.797539 -3.97548,-13.422104 -2.77263,0.18225 -3.137535,0.43983 -3.361095,2.387069 -0.1377,1.20123 -0.75006,2.376135 -1.3608,2.61063 -1.66941,0.64071 -1.334475,2.59281 0.44469,2.59281 2.174445,0 1.93833,1.131165 -0.46494,2.226285 -1.33974,0.610335 -1.86543,1.32435 -1.56006,2.11977 0.34425,0.901125 0.09315,1.082565 -1.01898,0.72981 -0.813645,-0.2592 -4.485496,-0.494505 -8.159899,-0.52488 -6.716436,-0.0567 -7.931396,-0.6561 -5.747636,-2.83986 1.53495,-1.53495 -0.1296,-1.056645 -2.7054,0.77679 -1.63377,1.16316 -2.50047,1.41183 -2.71229,0.7776 -0.1701,-0.51273 -1.3518895,-0.93231 -2.6243995,-0.93231 -1.42965,0 -3.47328,-0.931905 -5.34895,-2.439315 C -0.16747654,23.201515 -0.25617654,22.991725 0.21322346,19.529381 1.0337535,13.476048 2.3945535,11.272647 7.3608235,7.956468 13.002063,4.189563 15.305623,3.549663 18.991813,4.726593 c 2.709855,0.86508 7.114514,4.254848 7.114514,5.475275 0,1.09431 -3.50244,1.121445 -5.245358,0.03848 -1.160325,-0.719685 -2.688386,-0.90639 -4.552566,-0.55647 -3.61908,0.679185 -8.8644795,5.725969 -8.8644795,8.529298 0,1.264005 -0.43132,2.00475 -1.1664,2.00475 -0.64152,0 -1.1664,0.454005 -1.1664,1.008855 0,1.139265 12.2824795,4.626963 15.8041155,4.487643 1.86543,-0.0729 2.120985,0.14985 1.69695,1.485135 -0.3564,1.12104 -0.14985,1.57221 0.72009,1.57221 0.71847,0 1.21905,-0.66825 1.21905,-1.6281 0,-0.98901 0.62775,-1.792125 1.599345,-2.04606 0.90801,-0.2349 1.43046,-0.85779 1.20852,-1.43613 -0.23085,-0.597375 0.562545,-1.438155 1.918485,-2.03634 3.9285,-1.73259 2.57985,-3.351375 -2.79288,-3.351375 -4.440015,0 -4.654948,0.0891 -4.654948,1.93347 0,1.32111 0.492075,2.022165 1.5552,2.21373 2.47536,0.44631 3.288195,1.6848 1.106055,1.6848 -2.46564,0 -5.387963,-2.03553 -5.365643,-3.737745 0.009,-0.72414 0.689715,-2.191455 1.51227,-3.260655 1.482705,-1.928205 1.582335,-1.941975 12.147246,-1.719225 9.797396,0.20655 10.786892,0.0972 12.327714,-1.34865 0.921375,-0.86589 2.749545,-1.788883 4.062515,-2.051323 1.9602,-0.39285 2.75967,-0.081 4.468608,1.737448 1.68075,1.78929 1.99341,2.70135 1.62243,4.742307 -0.415935,2.29149 -0.27945,2.5272 1.456785,2.5272 1.05381,0 2.432025,0.19845 3.063015,0.440235 0.748845,0.28755 1.56087,-0.3888 2.33685,-1.944 0.654075,-1.31139 0.866295,-2.384235 0.47142,-2.384235 -0.3969,0 -0.718065,-1.075275 -0.718065,-2.389905 0,-1.860568 0.2997,-2.329963 1.3608,-2.119768 1.122255,0.22275 1.359585,1.118608 1.353105,5.111422 -0.0076,4.768834 0.0243,4.841127 2.1384,4.841127 1.18017,0 2.33523,0.0891 2.566485,0.1944 0.23085,0.1053 1.108485,-0.89262 1.94967,-2.22102 1.520775,-2.40165 1.520775,-2.42595 -0.0023,-4.362376 -1.299645,-1.651996 -1.377,-2.158651 -0.512325,-3.341249 0.56052,-0.766665 1.37943,-1.171665 1.81926,-0.89991 1.165185,0.72009 2.64789,7.232651 2.12301,9.323908 -0.35235,1.40535 -0.009,1.99098 1.597725,2.722815 2.15217,0.980505 2.44701,3.9123 0.33615,3.326265 -0.61641,-0.1701 -3.74463,-0.752085 -6.95219,-1.29114 -3.2076,-0.539055 -6.18192,-1.06677 -6.6096,-1.173285 -0.42768,-0.1053 -1.39401,0.07695 -2.147715,0.40581 -2.162295,0.94527 -8.247987,-0.2673 -9.071554,-1.803465 -0.40095,-0.74601 -0.52893,-2.82447 -0.28755,-4.618214 0.3321,-2.474145 0.1782,-3.255796 -0.637065,-3.237166 -2.232765,0.05265 -3.63366,2.100331 -4.513847,6.600609 -0.500175,2.55717 -1.231605,6.224526 -1.62567,8.149086 -0.39285,1.92456 -0.948105,4.89888 -1.23201,6.6096 -0.52974,3.19464 -1.53819,5.0544 -2.74104,5.0544 -0.37665,0 -0.67959,-0.4374 -0.675945,-0.972 z M 4.3340935,19.051886 c 0,-0.64152 -0.3483,-1.1664 -0.7776,-1.1664 -0.42768,0 -0.7776,0.52488 -0.7776,1.1664 0,0.64152 0.3483,1.166399 0.7776,1.166399 0.42768,0 0.7776,-0.524879 0.7776,-1.166399 z M 227.28986,40.447468 c -1.43208,-2.044845 -0.83754,-8.834751 1.08864,-12.428397 1.94967,-3.638115 1.94967,-7.023186 -0.001,-7.023186 -1.50741,0 -2.93787,2.64303 -3.36312,6.212862 -0.12555,1.06515 -0.80069,2.044845 -1.49729,2.17728 -0.97443,0.1863 -1.38834,-0.62127 -1.79415,-3.4911 -0.86102,-6.096546 -1.07324,-6.454079 -3.83452,-6.454079 -1.38267,0 -2.9241,-0.41067 -3.42549,-0.91206 -1.26239,-1.262385 -4.84623,0.41148 -4.83032,2.255849 0.0203,2.305665 1.1498,3.369195 4.68832,4.414176 3.97629,1.174095 5.42578,3.2643 1.69533,2.444985 -4.60578,-1.01169 -14.3146,-1.54143 -22.72536,-1.24011 -5.04731,0.18225 -12.60785,-0.40095 -14.1912,-1.09269 -1.79091,-0.78165 -1.7982,-5.061001 -0.0171,-10.029865 C 181.32387,9.027489 191.82759,0 196.8621,0 c 2.9966,0 4.98239,1.387125 4.98239,3.48057 0,2.45835 -1.17369,3.095415 -3.15171,1.70991 -1.40656,-0.985365 -2.03553,-0.954585 -5.21899,0.2511 -4.52089,1.71639 -5.85703,2.943134 -11.42796,10.496058 -1.37538,1.865025 -1.56533,7.067614 -0.2835,7.857931 0.94041,0.581175 2.50492,-1.074465 5.57766,-5.903644 2.27286,-3.572505 5.33563,-4.69877 7.48549,-2.75319 2.28055,2.06388 1.99341,3.520665 -0.69417,3.520665 -1.28345,0 -3.26795,0.83673 -4.55767,1.92213 -1.25631,1.05705 -2.50816,1.69857 -2.78113,1.4256 -0.27135,-0.27135 -0.49653,-0.16605 -0.49653,0.23895 0,0.405405 1.03923,1.128735 2.3089,1.608255 3.48867,1.31706 7.75612,0.05265 10.52142,-3.117285 3.726,-4.271332 6.14348,-5.413068 11.90837,-5.624559 2.8593,-0.1053 5.54875,0.0891 5.97643,0.43659 0.42768,0.34425 1.61676,0.748035 2.64221,0.896265 1.02546,0.14985 2.25017,0.96876 2.72159,1.82412 0.47142,0.85536 0.94851,1.70505 1.0611,1.88892 0.1134,0.1863 1.23525,-0.428895 2.49561,-1.3608 2.78681,-2.060235 3.31169,-2.08899 4.95579,-0.27135 1.70991,1.889325 1.63458,6.309778 -0.2187,12.784999 -0.90234,3.15576 -1.3284,6.343029 -1.06474,7.96793 0.49531,3.053294 -0.60183,3.606119 -2.31215,1.164374 z M 207.28769,22.38135 c 0,-1.576665 -0.97483,-1.750815 -3.1833,-0.569025 -1.95817,1.04814 -1.1911,2.3166 1.27778,2.112075 1.25023,-0.1053 1.90552,-0.63423 1.90552,-1.54305 z m 59.25304,12.871467 c 0.2268,-3.51702 0.1539,-3.648645 -2.33037,-4.308471 -1.41021,-0.3726 -2.75521,-1.18017 -2.98971,-1.790505 -0.3159,-0.82701 -1.27251,-0.99387 -3.74908,-0.654075 -3.95037,0.541485 -4.60025,-0.162 -4.42499,-4.79682 0.0891,-2.290275 -0.36855,-3.895695 -1.52239,-5.361876 -1.93185,-2.456325 -1.63661,-3.05532 1.16113,-2.35305 1.49243,0.3726 2.07603,1.059075 2.18741,2.56527 0.085,1.12995 0.2268,2.92896 0.3159,3.99816 0.0891,1.0692 0.19845,2.4057 0.2349,2.97027 0.0405,0.60264 0.78448,0.9234 1.79901,0.7776 1.5552,-0.22275 1.74676,-0.743985 1.91524,-5.209191 0.20655,-5.480501 0.49167,-6.167988 2.02743,-4.893615 0.73103,0.60669 0.94365,2.223855 0.71321,5.414728 -0.3159,4.346217 -0.2187,4.6445 2.18497,6.665288 1.38267,1.163565 2.90223,1.98612 3.3773,1.827765 0.97362,-0.324 2.28379,-6.003639 2.17161,-9.410175 -0.0405,-1.23525 -0.67109,-2.905875 -1.40049,-3.711825 -1.01534,-1.122255 -1.11213,-1.679535 -0.4131,-2.37897 0.69903,-0.69903 1.53778,-0.3078 3.57858,1.67022 2.21292,2.14488 3.10392,2.5191 5.24611,2.20482 2.98323,-0.437805 6.87128,0.70308 6.85386,2.01123 -0.008,0.492885 -0.3159,1.378215 -0.69093,1.96749 -0.77274,1.21986 -2.40772,0.52326 -2.40772,-1.025865 0,-0.841185 -0.51111,-0.85293 -2.80098,-0.0648 -3.18411,1.094715 -4.16936,2.28987 -4.18334,5.074609 -0.004,1.0692 -0.6808,3.34368 -1.50093,5.0544 -0.82012,1.71072 -1.8634,4.07268 -2.31822,5.2488 -0.45481,1.17612 -1.377,2.1384 -2.0493,2.1384 -0.96957,0 -1.17369,-0.74925 -0.9886,-3.627585 z m -137.35822,1.81197 c -1.33609,-0.97686 -1.34824,-1.26441 -0.2025,-4.86 0.66866,-2.10195 1.65483,-6.40382 2.19146,-9.559863 1.04935,-6.171673 1.18098,-5.796198 -2.93544,-8.376008 -1.37781,-0.86346 -1.37538,-0.91611 0.0648,-1.494448 0.94608,-0.3807 2.33158,-0.11745 3.78715,0.718468 1.55925,0.89505 2.59281,1.070415 3.22299,0.54756 0.5099,-0.42363 2.24127,-0.93231 3.84669,-1.131568 3.09825,-0.38475 5.92515,1.434103 5.92515,3.810239 0,1.46286 -0.29565,1.455975 -3.2566,-0.0729 -4.23011,-2.187811 -5.4692,-0.866701 -7.08685,7.555153 -0.77072,4.012335 -1.54265,8.440362 -1.71477,9.840366 -0.51921,4.21281 -1.33569,4.856193 -3.83859,3.025755 z m -29.959954,-2.02095 c -1.177335,-2.84229 -0.409455,-6.833201 1.771474,-9.207351 2.91033,-3.16791 1.6123,-9.506403 -1.946434,-9.506403 -1.181385,0 -1.47906,0.475065 -1.34055,2.1384 0.414315,4.982148 -1.630125,9.5256 -4.286358,9.5256 -0.76464,0 -0.47547,-2.996595 0.33615,-3.4992 1.33245,-0.82377 0.85455,-5.09494 -0.925425,-8.26123 -2.09061,-3.719519 -1.117395,-5.459966 1.690875,-3.024541 1.66293,1.44261 1.97478,1.47744 3.610575,0.40581 2.655587,-1.739878 3.570077,-1.449088 5.927257,1.883655 2.56081,3.621106 2.70135,6.50831 0.49167,10.132574 -0.93758,1.53819 -1.81602,4.621212 -2.0489,7.1928 -0.45481,5.016087 -1.7577,5.897448 -3.281306,2.219805 z m 224.002264,-2.28987 c -2.38869,-3.016035 -2.38869,-3.016035 -0.91652,-7.295144 1.33731,-3.886785 1.35432,-4.256266 0.1863,-4.029345 -4.66098,0.90477 -5.51214,1.2879 -5.95342,2.678265 -0.63788,2.010015 -1.94319,2.0088 -1.94319,-0.0018 0,-0.86427 0.5184,-1.5552 1.1664,-1.5552 0.64152,0 1.1664,-0.56214 1.1664,-1.249425 0,-0.687285 2.52436,-3.85236 5.60917,-7.03404 4.47128,-4.611247 6.0093,-5.738079 7.5816,-5.554735 1.44302,0.1701 2.03715,0.752085 2.21292,2.17404 0.32805,2.653153 2.85242,8.026086 4.35837,9.275753 2.04849,1.70019 1.41264,2.33523 -2.26597,2.261115 -2.02095,-0.03848 -3.50406,-0.439425 -3.51095,-0.94365 -0.009,-0.64071 -0.16605,-0.64233 -0.5832,-0.0061 -0.3159,0.47709 -1.39117,1.12347 -2.39314,1.43613 -1.93347,0.60345 -1.96749,1.334475 -0.4617,9.943844 0.69093,3.952395 -1.07447,3.91068 -4.25109,-0.10125 z m 2.56365,-14.54359 c 1.07406,-2.798956 0.2916,-3.355831 -2.13314,-1.51875 -0.79137,0.5994 -1.20771,1.463265 -0.92583,1.919295 0.76221,1.233629 2.52032,1.003185 3.05937,-0.40095 z m 16.99056,15.104717 c -1.10282,-1.102815 -1.32516,-6.098692 -0.27135,-6.098692 1.27575,0 5.66797,4.626517 5.34,5.625166 -0.44105,1.34217 -3.87869,1.66374 -5.06883,0.473445 z m -97.22318,-2.39031 c -1.34541,-1.34541 -2.64465,-1.73826 -5.78481,-1.7496 -3.65674,-0.01328 -4.11975,-0.2106 -4.7703,-2.04363 -1.18138,-3.32667 -0.0324,-5.94463 3.37244,-7.68131 1.68682,-0.860625 3.60571,-1.564515 4.26436,-1.564515 1.56087,0 1.52402,-1.888921 -0.085,-4.344112 -0.96309,-1.469338 -1.06029,-2.178088 -0.39285,-2.847148 0.66866,-0.668655 1.1579,-0.52407 1.96506,0.579555 1.77228,2.423518 3.63407,9.334641 3.16467,11.74512 -0.243,1.2393 0.1053,3.78432 0.77396,5.655865 1.46124,4.098884 1.45516,3.984795 0.2187,3.984795 -0.54675,0 -1.77431,-0.78084 -2.72889,-1.73502 z m -1.87677,-5.418859 c 1.03437,-1.03437 1.26441,-4.21362 0.34425,-4.78143 -2.12949,-1.31625 -8.01693,2.96703 -6.79524,4.943956 0.66785,1.080135 5.32428,0.96309 6.44978,-0.162 z m 54.07379,1.77795 c -2.51789,-1.552365 -2.93868,-2.340495 -3.77055,-7.065509 -0.41391,-2.351429 -0.10125,-3.165074 2.31417,-5.982498 3.51621,-4.104511 10.23241,-8.014299 13.76725,-8.014299 4.67979,0 5.9694,3.044384 2.62197,6.189047 -1.91038,1.794553 -1.91038,1.794553 -1.7496,-0.43983 0.1539,-2.109645 0.009,-2.22021 -2.56081,-1.973565 -3.3854,0.324 -4.17009,0.96795 -7.46612,6.120359 -3.65998,5.721353 -3.47773,8.037062 0.71361,9.063454 1.5062,0.36855 2.11086,0.95256 1.93631,1.86948 -0.36045,1.897425 -2.93909,2.00151 -5.80628,0.2349 z M 121.36261,26.2977 c -1.71072,-0.407025 -4.43038,-0.92907 -6.04361,-1.160325 -3.57453,-0.51192 -4.756,-2.38545 -4.06908,-6.451326 0.4127,-2.442555 0.2025,-3.25134 -1.1907,-4.547826 -1.62648,-1.515508 -1.54305,-3.251338 0.1539,-3.251338 0.89667,0 4.08678,3.779863 4.25315,5.039453 0.0567,0.436186 0.1458,1.907956 0.1944,3.271591 0.0729,2.022569 0.39285,2.455919 1.74029,2.354669 2.23317,-0.1701 3.53848,-3.166694 2.55069,-5.860188 -0.93393,-2.54745 -0.55121,-4.805201 0.81526,-4.805201 1.59084,0 2.85444,2.001105 2.92937,4.639435 0.0385,1.327995 0.3645,2.59767 0.72697,2.82123 1.07649,0.66501 0.74885,1.87029 -0.50787,1.87029 -1.9039,0 -1.32597,2.310525 0.7776,3.1104 1.18989,0.45279 1.944,1.349865 1.944,2.313765 0,0.86589 -0.26325,1.53414 -0.5832,1.48473 -0.31995,-0.0486 -1.98288,-0.422415 -3.6936,-0.829845 z m 189.1348,-2.77425 c -0.52529,-1.17612 -1.65483,-2.72565 -2.51019,-3.44412 -1.21217,-1.01736 -1.34987,-1.515105 -0.6233,-2.25423 0.73224,-0.7452 1.35149,-0.673515 2.88887,0.3321 2.52193,1.6524 3.59923,3.71061 3.04722,5.821834 -0.59738,2.28501 -1.65402,2.112075 -2.80179,-0.45765 z M 236.6421,9.573834 c -1.31463,-0.34425 -1.82169,-1.854089 -0.9238,-2.751974 0.59211,-0.59211 6.56146,1.799009 6.56146,2.628449 0,0.6804 -3.23595,0.751275 -5.6376,0.1215 z"/>
</svg>
